<svg version="1.1" xmlns="http://www.w3.org/2000/svg" xmlns:xlink="http://www.w3.org/1999/xlink" width="827" height="507"><defs/><g><g transform="translate(-214,-14) scale(1,1)"><rect fill="#C0C0C0" stroke="none" x="871" y="223" width="167" height="135" opacity="0.2"/></g><g transform="translate(-214,-14) scale(1,1)"><rect fill="#ffffff" stroke="none" x="864" y="216" width="167" height="135"/></g><g transform="translate(-214,-14) scale(1,1)"><path fill="none" stroke="#000000" d="M 864 216 L 1031 216 L 1031 351 L 864 351 L 864 216 Z Z" stroke-miterlimit="10"/></g><g transform="translate(-214,-14) scale(1,1)"><path fill="none" stroke="#000000" d="M 864 241 L 1031 241" stroke-miterlimit="10"/></g><g transform="translate(-214,-14) scale(1,1)"><path fill="none" stroke="#000000" d="M 864 279 L 1031 279" stroke-miterlimit="10"/></g><g transform="translate(-214,-14) scale(1,1)"><g><path fill="none" stroke="none"/><text fill="#000000" stroke="none" font-family="Arial" font-size="13px" font-style="normal" font-weight="bold" text-decoration="none" x="931.9609375" y="235.5">log in</text></g></g><g transform="translate(-214,-14) scale(1,1)"><g><path fill="none" stroke="none"/><text fill="#000000" stroke="none" font-family="Arial" font-size="13px" font-style="normal" font-weight="normal" text-decoration="none" x="869" y="258.5">+user name</text></g></g><g transform="translate(-214,-14) scale(1,1)"><g><path fill="none" stroke="none"/><text fill="#000000" stroke="none" font-family="Arial" font-size="13px" font-style="normal" font-weight="normal" text-decoration="none" x="869" y="273.5">+password</text></g></g><g transform="translate(-214,-14) scale(1,1)"><g><path fill="none" stroke="none"/><text fill="#000000" stroke="none" font-family="Arial" font-size="13px" font-style="normal" font-weight="normal" text-decoration="none" x="869" y="296.5">+admin()</text></g></g><g transform="translate(-214,-14) scale(1,1)"><g><path fill="none" stroke="none"/><text fill="#000000" stroke="none" font-family="Arial" font-size="13px" font-style="normal" font-weight="normal" text-decoration="none" x="869" y="311.5">+employee()</text></g></g><g transform="translate(-214,-14) scale(1,1)"><rect fill="#C0C0C0" stroke="none" x="663" y="215" width="175" height="135" opacity="0.2"/></g><g transform="translate(-214,-14) scale(1,1)"><rect fill="#ffffff" stroke="none" x="656" y="208" width="175" height="135"/></g><g transform="translate(-214,-14) scale(1,1)"><path fill="none" stroke="#000000" d="M 656 208 L 831 208 L 831 343 L 656 343 L 656 208 Z Z" stroke-miterlimit="10"/></g><g transform="translate(-214,-14) scale(1,1)"><path fill="none" stroke="#000000" d="M 656 233 L 831 233" stroke-miterlimit="10"/></g><g transform="translate(-214,-14) scale(1,1)"><path fill="none" stroke="#000000" d="M 656 271 L 831 271" stroke-miterlimit="10"/></g><g transform="translate(-214,-14) scale(1,1)"><g><path fill="none" stroke="none"/><text fill="#000000" stroke="none" font-family="Arial" font-size="13px" font-style="normal" font-weight="bold" text-decoration="none" x="725.79638671875" y="227.5">admin</text></g></g><g transform="translate(-214,-14) scale(1,1)"><g><path fill="none" stroke="none"/><text fill="#000000" stroke="none" font-family="Arial" font-size="13px" font-style="normal" font-weight="normal" text-decoration="none" x="661" y="250.5">+stock id: int</text></g></g><g transform="translate(-214,-14) scale(1,1)"><g><path fill="none" stroke="none"/><text fill="#000000" stroke="none" font-family="Arial" font-size="13px" font-style="normal" font-weight="normal" text-decoration="none" x="661" y="265.5">+trans id: int</text></g></g><g transform="translate(-214,-14) scale(1,1)"><g><path fill="none" stroke="none"/><text fill="#000000" stroke="none" font-family="Arial" font-size="13px" font-style="normal" font-weight="normal" text-decoration="none" x="661" y="288.5">+transaction()</text></g></g><g transform="translate(-214,-14) scale(1,1)"><g><path fill="none" stroke="none"/><text fill="#000000" stroke="none" font-family="Arial" font-size="13px" font-style="normal" font-weight="normal" text-decoration="none" x="661" y="303.5">+views_tock()</text></g></g><g transform="translate(-214,-14) scale(1,1)"><g><path fill="none" stroke="none"/><text fill="#000000" stroke="none" font-family="Arial" font-size="13px" font-style="normal" font-weight="normal" text-decoration="none" x="661" y="318.5">+low_stock()</text></g></g><g transform="translate(-214,-14) scale(1,1)"><rect fill="#C0C0C0" stroke="none" x="231" y="31" width="167" height="160" opacity="0.2"/></g><g transform="translate(-214,-14) scale(1,1)"><rect fill="#ffffff" stroke="none" x="224" y="24" width="167" height="160"/></g><g transform="translate(-214,-14) scale(1,1)"><path fill="none" stroke="#000000" d="M 224 24 L 391 24 L 391 184 L 224 184 L 224 24 Z Z" stroke-miterlimit="10"/></g><g transform="translate(-214,-14) scale(1,1)"><path fill="none" stroke="#000000" d="M 224 49 L 391 49" stroke-miterlimit="10"/></g><g transform="translate(-214,-14) scale(1,1)"><path fill="none" stroke="#000000" d="M 224 132 L 391 132" stroke-miterlimit="10"/></g><g transform="translate(-214,-14) scale(1,1)"><g><path fill="none" stroke="none"/><text fill="#000000" stroke="none" font-family="Arial" font-size="13px" font-style="normal" font-weight="bold" text-decoration="none" x="275.70458984375" y="43.5">transaction</text></g></g><g transform="translate(-214,-14) scale(1,1)"><g><path fill="none" stroke="none"/><text fill="#000000" stroke="none" font-family="Arial" font-size="13px" font-style="normal" font-weight="normal" text-decoration="none" x="229" y="66.5">#id: int</text></g></g><g transform="translate(-214,-14) scale(1,1)"><g><path fill="none" stroke="none"/><text fill="#000000" stroke="none" font-family="Arial" font-size="13px" font-style="normal" font-weight="normal" text-decoration="none" x="229" y="81.5">+name: string</text></g></g><g transform="translate(-214,-14) scale(1,1)"><g><path fill="none" stroke="none"/><text fill="#000000" stroke="none" font-family="Arial" font-size="13px" font-style="normal" font-weight="normal" text-decoration="none" x="229" y="96.5">+details: string</text></g></g><g transform="translate(-214,-14) scale(1,1)"><g><path fill="none" stroke="none"/><text fill="#000000" stroke="none" font-family="Arial" font-size="13px" font-style="normal" font-weight="normal" text-decoration="none" x="229" y="111.5">+date: date</text></g></g><g transform="translate(-214,-14) scale(1,1)"><g><path fill="none" stroke="none"/><text fill="#000000" stroke="none" font-family="Arial" font-size="13px" font-style="normal" font-weight="normal" text-decoration="none" x="229" y="126.5">+confirmation: string</text></g></g><g transform="translate(-214,-14) scale(1,1)"><g><path fill="none" stroke="none"/><text fill="#000000" stroke="none" font-family="Arial" font-size="13px" font-style="normal" font-weight="normal" text-decoration="none" x="229" y="149.5">+create()</text></g></g><g transform="translate(-214,-14) scale(1,1)"><g><path fill="none" stroke="none"/><text fill="#000000" stroke="none" font-family="Arial" font-size="13px" font-style="normal" font-weight="normal" text-decoration="none" x="229" y="164.5">+update()</text></g></g><g transform="translate(-214,-14) scale(1,1)"><g><path fill="none" stroke="none"/><text fill="#000000" stroke="none" font-family="Arial" font-size="13px" font-style="normal" font-weight="normal" text-decoration="none" x="229" y="179.5">+approve()</text></g></g><g transform="translate(-214,-14) scale(1,1)"><rect fill="#C0C0C0" stroke="none" x="671" y="407" width="175" height="111" opacity="0.2"/></g><g transform="translate(-214,-14) scale(1,1)"><rect fill="#ffffff" stroke="none" x="664" y="400" width="175" height="111"/></g><g transform="translate(-214,-14) scale(1,1)"><path fill="none" stroke="#000000" d="M 664 400 L 839 400 L 839 511 L 664 511 L 664 400 Z Z" stroke-miterlimit="10"/></g><g transform="translate(-214,-14) scale(1,1)"><path fill="none" stroke="#000000" d="M 664 425 L 839 425" stroke-miterlimit="10"/></g><g transform="translate(-214,-14) scale(1,1)"><path fill="none" stroke="#000000" d="M 664 478 L 839 478" stroke-miterlimit="10"/></g><g transform="translate(-214,-14) scale(1,1)"><g><path fill="none" stroke="none"/><text fill="#000000" stroke="none" font-family="Arial" font-size="13px" font-style="normal" font-weight="bold" text-decoration="none" x="736.3291015625" y="419.5">stock</text></g></g><g transform="translate(-214,-14) scale(1,1)"><g><path fill="none" stroke="none"/><text fill="#000000" stroke="none" font-family="Arial" font-size="13px" font-style="normal" font-weight="normal" text-decoration="none" x="669" y="442.5">+stock id: int</text></g></g><g transform="translate(-214,-14) scale(1,1)"><g><path fill="none" stroke="none"/><text fill="#000000" stroke="none" font-family="Arial" font-size="13px" font-style="normal" font-weight="normal" text-decoration="none" x="669" y="457.5">+stoch qun: int</text></g></g><g transform="translate(-214,-14) scale(1,1)"><g><path fill="none" stroke="none"/><text fill="#000000" stroke="none" font-family="Arial" font-size="13px" font-style="normal" font-weight="normal" text-decoration="none" x="669" y="472.5">+stockname: char</text></g></g><g transform="translate(-214,-14) scale(1,1)"><g><path fill="none" stroke="none"/><text fill="#000000" stroke="none" font-family="Arial" font-size="13px" font-style="normal" font-weight="normal" text-decoration="none" x="669" y="495.5">+stock()</text></g></g><g transform="translate(-214,-14) scale(1,1)"><path fill="none" stroke="#000000" d="M 863 280 L 832 278" stroke-miterlimit="10"/></g><g transform="translate(-214,-14) scale(1,1)"><path fill="none" stroke="#000000" d="M 746 344 L 749 399" stroke-miterlimit="10"/></g><g transform="translate(-214,-14) scale(1,1)"><g><path fill="none" stroke="none"/><text fill="#000000" stroke="none" font-family="Arial" font-size="13px" font-style="normal" font-weight="normal" text-decoration="none" x="730.5" y="375.5">+manages</text></g></g><g transform="translate(-214,-14) scale(1,1)"><rect fill="#C0C0C0" stroke="none" x="695" y="39" width="111.9716796875" height="130" opacity="0.2"/></g><g transform="translate(-214,-14) scale(1,1)"><rect fill="#ffffff" stroke="none" x="688" y="32" width="111.9716796875" height="130"/></g><g transform="translate(-214,-14) scale(1,1)"><path fill="none" stroke="#000000" d="M 688 32 L 799.9716796875 32 L 799.9716796875 162 L 688 162 L 688 32 Z Z" stroke-miterlimit="10"/></g><g transform="translate(-214,-14) scale(1,1)"><path fill="none" stroke="#000000" d="M 688 57 L 799.9716796875 57" stroke-miterlimit="10"/></g><g transform="translate(-214,-14) scale(1,1)"><path fill="none" stroke="#000000" d="M 688 125 L 799.9716796875 125" stroke-miterlimit="10"/></g><g transform="translate(-214,-14) scale(1,1)"><g><path fill="none" stroke="none"/><text fill="#000000" stroke="none" font-family="Arial" font-size="13px" font-style="normal" font-weight="bold" text-decoration="none" x="721.22314453125" y="51.5">supplier</text></g></g><g transform="translate(-214,-14) scale(1,1)"><g><path fill="none" stroke="none"/><text fill="#000000" stroke="none" font-family="Arial" font-size="13px" font-style="normal" font-weight="normal" text-decoration="none" x="693" y="74.5">+id</text></g></g><g transform="translate(-214,-14) scale(1,1)"><g><path fill="none" stroke="none"/><text fill="#000000" stroke="none" font-family="Arial" font-size="13px" font-style="normal" font-weight="normal" text-decoration="none" x="693" y="89.5">+name: string</text></g></g><g transform="translate(-214,-14) scale(1,1)"><g><path fill="none" stroke="none"/><text fill="#000000" stroke="none" font-family="Arial" font-size="13px" font-style="normal" font-weight="normal" text-decoration="none" x="693" y="104.5">+number: string</text></g></g><g transform="translate(-214,-14) scale(1,1)"><g><path fill="none" stroke="none"/><text fill="#000000" stroke="none" font-family="Arial" font-size="13px" font-style="normal" font-weight="normal" text-decoration="none" x="693" y="119.5">+details: string</text></g></g><g transform="translate(-214,-14) scale(1,1)"><g><path fill="none" stroke="none"/><text fill="#000000" stroke="none" font-family="Arial" font-size="13px" font-style="normal" font-weight="normal" text-decoration="none" x="693" y="142.5">+create()</text></g></g><g transform="translate(-214,-14) scale(1,1)"><g><path fill="none" stroke="none"/><text fill="#000000" stroke="none" font-family="Arial" font-size="13px" font-style="normal" font-weight="normal" text-decoration="none" x="693" y="157.5">+update()</text></g></g><g transform="translate(-214,-14) scale(1,1)"><path fill="none" stroke="#000000" d="M 743 163 L 743 207" stroke-miterlimit="10"/></g><g transform="translate(-214,-14) scale(1,1)"><g><path fill="none" stroke="none"/><text fill="#000000" stroke="none" font-family="Arial" font-size="13px" font-style="normal" font-weight="normal" text-decoration="none" x="729.5" y="187.5">+contacts</text></g></g><g transform="translate(-214,-14) scale(1,1)"><rect fill="#C0C0C0" stroke="none" x="479" y="47" width="93.1826171875" height="130" opacity="0.2"/></g><g transform="translate(-214,-14) scale(1,1)"><rect fill="#ffffff" stroke="none" x="472" y="40" width="93.1826171875" height="130"/></g><g transform="translate(-214,-14) scale(1,1)"><path fill="none" stroke="#000000" d="M 472 40 L 565.1826171875 40 L 565.1826171875 170 L 472 170 L 472 40 Z Z" stroke-miterlimit="10"/></g><g transform="translate(-214,-14) scale(1,1)"><path fill="none" stroke="#000000" d="M 472 65 L 565.1826171875 65" stroke-miterlimit="10"/></g><g transform="translate(-214,-14) scale(1,1)"><path fill="none" stroke="#000000" d="M 472 133 L 565.1826171875 133" stroke-miterlimit="10"/></g><g transform="translate(-214,-14) scale(1,1)"><g><path fill="none" stroke="none"/><text fill="#000000" stroke="none" font-family="Arial" font-size="13px" font-style="normal" font-weight="bold" text-decoration="none" x="493.660888671875" y="59.5">products</text></g></g><g transform="translate(-214,-14) scale(1,1)"><g><path fill="none" stroke="none"/><text fill="#000000" stroke="none" font-family="Arial" font-size="13px" font-style="normal" font-weight="normal" text-decoration="none" x="477" y="82.5">+id: int</text></g></g><g transform="translate(-214,-14) scale(1,1)"><g><path fill="none" stroke="none"/><text fill="#000000" stroke="none" font-family="Arial" font-size="13px" font-style="normal" font-weight="normal" text-decoration="none" x="477" y="97.5">+name: string</text></g></g><g transform="translate(-214,-14) scale(1,1)"><g><path fill="none" stroke="none"/><text fill="#000000" stroke="none" font-family="Arial" font-size="13px" font-style="normal" font-weight="normal" text-decoration="none" x="477" y="112.5">+price: string</text></g></g><g transform="translate(-214,-14) scale(1,1)"><g><path fill="none" stroke="none"/><text fill="#000000" stroke="none" font-family="Arial" font-size="13px" font-style="normal" font-weight="normal" text-decoration="none" x="477" y="127.5">+details: string</text></g></g><g transform="translate(-214,-14) scale(1,1)"><g><path fill="none" stroke="none"/><text fill="#000000" stroke="none" font-family="Arial" font-size="13px" font-style="normal" font-weight="normal" text-decoration="none" x="477" y="150.5">+create()</text></g></g><g transform="translate(-214,-14) scale(1,1)"><g><path fill="none" stroke="none"/><text fill="#000000" stroke="none" font-family="Arial" font-size="13px" font-style="normal" font-weight="normal" text-decoration="none" x="477" y="165.5">+update()</text></g></g><g transform="translate(-214,-14) scale(1,1)"><path fill="none" stroke="#000000" d="M 566 103 L 687 99" stroke-miterlimit="10"/></g><g transform="translate(-214,-14) scale(1,1)"><path fill="#000000" stroke="none" d="M 676.9819552269454 103.54299228758673 L 687 99 L 676.7037919533119 95.12855326017336 L 665.0120111931426 99.72687566303661"/></g><g transform="translate(-214,-14) scale(1,1)"><path fill="none" stroke="#000000" d="M 676.9819552269454 103.54299228758673 L 687 99 L 676.7037919533119 95.12855326017336 L 665.0120111931426 99.72687566303661 L 676.9819552269454 103.54299228758673" stroke-miterlimit="10"/></g><g transform="translate(-214,-14) scale(1,1)"><path fill="none" stroke="#000000" d="M 392 104 L 471 105" stroke-miterlimit="10"/></g><g transform="translate(-214,-14) scale(1,1)"><path fill="#000000" stroke="none" d="M 460.78485846451355 109.08054940050718 L 471 105 L 460.89141999741184 100.6621883015425 L 449.0017623262735 104.72154129526929"/></g><g transform="translate(-214,-14) scale(1,1)"><path fill="none" stroke="#000000" d="M 460.78485846451355 109.08054940050718 L 471 105 L 460.89141999741184 100.6621883015425 L 449.0017623262735 104.72154129526929 L 460.78485846451355 109.08054940050718" stroke-miterlimit="10"/></g><g transform="translate(-214,-14) scale(1,1)"><rect fill="#C0C0C0" stroke="none" x="263" y="295" width="119.1953125" height="145" opacity="0.2"/></g><g transform="translate(-214,-14) scale(1,1)"><rect fill="#ffffff" stroke="none" x="256" y="288" width="119.1953125" height="145"/></g><g transform="translate(-214,-14) scale(1,1)"><path fill="none" stroke="#000000" d="M 256 288 L 375.1953125 288 L 375.1953125 433 L 256 433 L 256 288 Z Z" stroke-miterlimit="10"/></g><g transform="translate(-214,-14) scale(1,1)"><path fill="none" stroke="#000000" d="M 256 313 L 375.1953125 313" stroke-miterlimit="10"/></g><g transform="translate(-214,-14) scale(1,1)"><path fill="none" stroke="#000000" d="M 256 381 L 375.1953125 381" stroke-miterlimit="10"/></g><g transform="translate(-214,-14) scale(1,1)"><g><path fill="none" stroke="none"/><text fill="#000000" stroke="none" font-family="Arial" font-size="13px" font-style="normal" font-weight="bold" text-decoration="none" x="300.423583984375" y="307.5">sales</text></g></g><g transform="translate(-214,-14) scale(1,1)"><g><path fill="none" stroke="none"/><text fill="#000000" stroke="none" font-family="Arial" font-size="13px" font-style="normal" font-weight="normal" text-decoration="none" x="261" y="330.5">#id: int</text></g></g><g transform="translate(-214,-14) scale(1,1)"><g><path fill="none" stroke="none"/><text fill="#000000" stroke="none" font-family="Arial" font-size="13px" font-style="normal" font-weight="normal" text-decoration="none" x="261" y="345.5">+details: string</text></g></g><g transform="translate(-214,-14) scale(1,1)"><g><path fill="none" stroke="none"/><text fill="#000000" stroke="none" font-family="Arial" font-size="13px" font-style="normal" font-weight="normal" text-decoration="none" x="261" y="360.5">+date: string</text></g></g><g transform="translate(-214,-14) scale(1,1)"><g><path fill="none" stroke="none"/><text fill="#000000" stroke="none" font-family="Arial" font-size="13px" font-style="normal" font-weight="normal" text-decoration="none" x="261" y="375.5">+transaction: string</text></g></g><g transform="translate(-214,-14) scale(1,1)"><g><path fill="none" stroke="none"/><text fill="#000000" stroke="none" font-family="Arial" font-size="13px" font-style="normal" font-weight="normal" text-decoration="none" x="261" y="398.5">+create()</text></g></g><g transform="translate(-214,-14) scale(1,1)"><g><path fill="none" stroke="none"/><text fill="#000000" stroke="none" font-family="Arial" font-size="13px" font-style="normal" font-weight="normal" text-decoration="none" x="261" y="413.5">+update()</text></g></g><g transform="translate(-214,-14) scale(1,1)"><g><path fill="none" stroke="none"/><text fill="#000000" stroke="none" font-family="Arial" font-size="13px" font-style="normal" font-weight="normal" text-decoration="none" x="261" y="428.5">+approve()</text></g></g><g transform="translate(-214,-14) scale(1,1)"><rect fill="#C0C0C0" stroke="none" x="455" y="359" width="126.4189453125" height="145" opacity="0.2"/></g><g transform="translate(-214,-14) scale(1,1)"><rect fill="#ffffff" stroke="none" x="448" y="352" width="126.4189453125" height="145"/></g><g transform="translate(-214,-14) scale(1,1)"><path fill="none" stroke="#000000" d="M 448 352 L 574.4189453125 352 L 574.4189453125 497 L 448 497 L 448 352 Z Z" stroke-miterlimit="10"/></g><g transform="translate(-214,-14) scale(1,1)"><path fill="none" stroke="#000000" d="M 448 377 L 574.4189453125 377" stroke-miterlimit="10"/></g><g transform="translate(-214,-14) scale(1,1)"><path fill="none" stroke="#000000" d="M 448 445 L 574.4189453125 445" stroke-miterlimit="10"/></g><g transform="translate(-214,-14) scale(1,1)"><g><path fill="none" stroke="none"/><text fill="#000000" stroke="none" font-family="Arial" font-size="13px" font-style="normal" font-weight="bold" text-decoration="none" x="498.56494140625" y="371.5">user</text></g></g><g transform="translate(-214,-14) scale(1,1)"><g><path fill="none" stroke="none"/><text fill="#000000" stroke="none" font-family="Arial" font-size="13px" font-style="normal" font-weight="normal" text-decoration="none" x="453" y="394.5">#id: int</text></g></g><g transform="translate(-214,-14) scale(1,1)"><g><path fill="none" stroke="none"/><text fill="#000000" stroke="none" font-family="Arial" font-size="13px" font-style="normal" font-weight="normal" text-decoration="none" x="453" y="409.5">+name: string</text></g></g><g transform="translate(-214,-14) scale(1,1)"><g><path fill="none" stroke="none"/><text fill="#000000" stroke="none" font-family="Arial" font-size="13px" font-style="normal" font-weight="normal" text-decoration="none" x="453" y="424.5">+age: string</text></g></g><g transform="translate(-214,-14) scale(1,1)"><g><path fill="none" stroke="none"/><text fill="#000000" stroke="none" font-family="Arial" font-size="13px" font-style="normal" font-weight="normal" text-decoration="none" x="453" y="439.5">+contact num: string</text></g></g><g transform="translate(-214,-14) scale(1,1)"><g><path fill="none" stroke="none"/><text fill="#000000" stroke="none" font-family="Arial" font-size="13px" font-style="normal" font-weight="normal" text-decoration="none" x="453" y="462.5">+add()</text></g></g><g transform="translate(-214,-14) scale(1,1)"><g><path fill="none" stroke="none"/><text fill="#000000" stroke="none" font-family="Arial" font-size="13px" font-style="normal" font-weight="normal" text-decoration="none" x="453" y="477.5">+update()</text></g></g><g transform="translate(-214,-14) scale(1,1)"><g><path fill="none" stroke="none"/><text fill="#000000" stroke="none" font-family="Arial" font-size="13px" font-style="normal" font-weight="normal" text-decoration="none" x="453" y="492.5">+delete()</text></g></g><g transform="translate(-214,-14) scale(1,1)"><rect fill="#C0C0C0" stroke="none" x="447" y="207" width="128.6025390625" height="115" opacity="0.2"/></g><g transform="translate(-214,-14) scale(1,1)"><rect fill="#ffffff" stroke="none" x="440" y="200" width="128.6025390625" height="115"/></g><g transform="translate(-214,-14) scale(1,1)"><path fill="none" stroke="#000000" d="M 440 200 L 568.6025390625 200 L 568.6025390625 315 L 440 315 L 440 200 Z Z" stroke-miterlimit="10"/></g><g transform="translate(-214,-14) scale(1,1)"><path fill="none" stroke="#000000" d="M 440 225 L 568.6025390625 225" stroke-miterlimit="10"/></g><g transform="translate(-214,-14) scale(1,1)"><path fill="none" stroke="#000000" d="M 440 278 L 568.6025390625 278" stroke-miterlimit="10"/></g><g transform="translate(-214,-14) scale(1,1)"><g><path fill="none" stroke="none"/><text fill="#000000" stroke="none" font-family="Arial" font-size="13px" font-style="normal" font-weight="bold" text-decoration="none" x="477.5712890625" y="219.5">customer</text></g></g><g transform="translate(-214,-14) scale(1,1)"><g><path fill="none" stroke="none"/><text fill="#000000" stroke="none" font-family="Arial" font-size="13px" font-style="normal" font-weight="normal" text-decoration="none" x="445" y="242.5">+name: string</text></g></g><g transform="translate(-214,-14) scale(1,1)"><g><path fill="none" stroke="none"/><text fill="#000000" stroke="none" font-family="Arial" font-size="13px" font-style="normal" font-weight="normal" text-decoration="none" x="445" y="257.5">+address: string</text></g></g><g transform="translate(-214,-14) scale(1,1)"><g><path fill="none" stroke="none"/><text fill="#000000" stroke="none" font-family="Arial" font-size="13px" font-style="normal" font-weight="normal" text-decoration="none" x="445" y="272.5">+details: string</text></g></g><g transform="translate(-214,-14) scale(1,1)"><g><path fill="none" stroke="none"/><text fill="#000000" stroke="none" font-family="Arial" font-size="13px" font-style="normal" font-weight="normal" text-decoration="none" x="445" y="295.5">+createtransation()</text></g></g><g transform="translate(-214,-14) scale(1,1)"><g><path fill="none" stroke="none"/><text fill="#000000" stroke="none" font-family="Arial" font-size="13px" font-style="normal" font-weight="normal" text-decoration="none" x="445" y="310.5">+updatetransaction()</text></g></g><g transform="translate(-214,-14) scale(1,1)"><path fill="none" stroke="#000000" d="M 313 287 L 310 185" stroke-miterlimit="10"/></g><g transform="translate(-214,-14) scale(1,1)"><path fill="#000000" stroke="none" d="M 314.5064712133113 195.03452625705853 L 310 185 L 306.0910747917938 195.28203791651492 L 310.6467791352416 206.99049059821576"/></g><g transform="translate(-214,-14) scale(1,1)"><path fill="none" stroke="#000000" d="M 314.5064712133113 195.03452625705853 L 310 185 L 306.0910747917938 195.28203791651492 L 310.6467791352416 206.99049059821576 L 314.5064712133113 195.03452625705853" stroke-miterlimit="10"/></g><g transform="translate(-214,-14) scale(1,1)"><path fill="none" stroke="#000000" d="M 392 170 L 439 207" stroke-miterlimit="10"/></g><g transform="translate(-214,-14) scale(1,1)"><g><path fill="none" stroke="none"/><text fill="#000000" stroke="none" font-family="Arial" font-size="13px" font-style="normal" font-weight="normal" text-decoration="none" x="398.5" y="182.5">+creates</text></g></g><g transform="translate(-214,-14) scale(1,1)"><path fill="none" stroke="#000000" d="M 376 327 L 439 292" stroke-miterlimit="10"/></g><g transform="translate(-214,-14) scale(1,1)"><g><path fill="none" stroke="none"/><text fill="#000000" stroke="none" font-family="Arial" font-size="13px" font-style="normal" font-weight="normal" text-decoration="none" x="381.83544921875" y="301.5">+pays</text></g></g><g transform="translate(-214,-14) scale(1,1)"><path fill="none" stroke="#000000" d="M 569 280 L 598 280 L 598 496 L 574 496" stroke-miterlimit="10"/></g><g transform="translate(-214,-14) scale(1,1)"><path fill="#FFFFFF" stroke="none" d="M 594.3253497152483 487.580964487968 L 574 496 L 594.3253497152483 504.419035512032"/></g><g transform="translate(-214,-14) scale(1,1)"><path fill="none" stroke="#000000" d="M 594.3253497152483 487.580964487968 L 574 496 L 594.3253497152483 504.419035512032 L 594.3253497152483 487.580964487968" stroke-miterlimit="10"/></g><g transform="translate(-214,-14) scale(1,1)"><path fill="none" stroke="#000000" d="M 655 278 L 599 280 L 592 304 L 592 496 L 575 481" stroke-miterlimit="10"/></g><g transform="translate(-214,-14) scale(1,1)"><path fill="#FFFFFF" stroke="none" d="M 595.8109326981902 488.13477962038064 L 575 481 L 584.6705005818644 500.7606026855499"/></g><g transform="translate(-214,-14) scale(1,1)"><path fill="none" stroke="#000000" d="M 595.8109326981902 488.13477962038064 L 575 481 L 584.6705005818644 500.7606026855499 L 595.8109326981902 488.13477962038064" stroke-miterlimit="10"/></g></g></svg>