<svg version="1.1" xmlns="http://www.w3.org/2000/svg" xmlns:xlink="http://www.w3.org/1999/xlink" width="788.4853515625" height="550"><defs/><g><text fill="#eeeeee" stroke="none" font-family="Arial" font-size="24px" font-style="normal" font-weight="normal" text-decoration="none" x="0" y="0">UNREGISTERED</text><text fill="#eeeeee" stroke="none" font-family="Arial" font-size="24px" font-style="normal" font-weight="normal" text-decoration="none" x="0" y="30">UNREGISTERED</text><text fill="#eeeeee" stroke="none" font-family="Arial" font-size="24px" font-style="normal" font-weight="normal" text-decoration="none" x="0" y="60">UNREGISTERED</text><text fill="#eeeeee" stroke="none" font-family="Arial" font-size="24px" font-style="normal" font-weight="normal" text-decoration="none" x="0" y="90">UNREGISTERED</text><text fill="#eeeeee" stroke="none" font-family="Arial" font-size="24px" font-style="normal" font-weight="normal" text-decoration="none" x="0" y="120">UNREGISTERED</text><text fill="#eeeeee" stroke="none" font-family="Arial" font-size="24px" font-style="normal" font-weight="normal" text-decoration="none" x="0" y="150">UNREGISTERED</text><text fill="#eeeeee" stroke="none" font-family="Arial" font-size="24px" font-style="normal" font-weight="normal" text-decoration="none" x="0" y="180">UNREGISTERED</text><text fill="#eeeeee" stroke="none" font-family="Arial" font-size="24px" font-style="normal" font-weight="normal" text-decoration="none" x="0" y="210">UNREGISTERED</text><text fill="#eeeeee" stroke="none" font-family="Arial" font-size="24px" font-style="normal" font-weight="normal" text-decoration="none" x="0" y="240">UNREGISTERED</text><text fill="#eeeeee" stroke="none" font-family="Arial" font-size="24px" font-style="normal" font-weight="normal" text-decoration="none" x="0" y="270">UNREGISTERED</text><text fill="#eeeeee" stroke="none" font-family="Arial" font-size="24px" font-style="normal" font-weight="normal" text-decoration="none" x="0" y="300">UNREGISTERED</text><text fill="#eeeeee" stroke="none" font-family="Arial" font-size="24px" font-style="normal" font-weight="normal" text-decoration="none" x="0" y="330">UNREGISTERED</text><text fill="#eeeeee" stroke="none" font-family="Arial" font-size="24px" font-style="normal" font-weight="normal" text-decoration="none" x="0" y="360">UNREGISTERED</text><text fill="#eeeeee" stroke="none" font-family="Arial" font-size="24px" font-style="normal" font-weight="normal" text-decoration="none" x="0" y="390">UNREGISTERED</text><text fill="#eeeeee" stroke="none" font-family="Arial" font-size="24px" font-style="normal" font-weight="normal" text-decoration="none" x="0" y="420">UNREGISTERED</text><text fill="#eeeeee" stroke="none" font-family="Arial" font-size="24px" font-style="normal" font-weight="normal" text-decoration="none" x="0" y="450">UNREGISTERED</text><text fill="#eeeeee" stroke="none" font-family="Arial" font-size="24px" font-style="normal" font-weight="normal" text-decoration="none" x="0" y="480">UNREGISTERED</text><text fill="#eeeeee" stroke="none" font-family="Arial" font-size="24px" font-style="normal" font-weight="normal" text-decoration="none" x="0" y="510">UNREGISTERED</text><text fill="#eeeeee" stroke="none" font-family="Arial" font-size="24px" font-style="normal" font-weight="normal" text-decoration="none" x="0" y="540">UNREGISTERED</text><text fill="#eeeeee" stroke="none" font-family="Arial" font-size="24px" font-style="normal" font-weight="normal" text-decoration="none" x="200" y="0">UNREGISTERED</text><text fill="#eeeeee" stroke="none" font-family="Arial" font-size="24px" font-style="normal" font-weight="normal" text-decoration="none" x="200" y="30">UNREGISTERED</text><text fill="#eeeeee" stroke="none" font-family="Arial" font-size="24px" font-style="normal" font-weight="normal" text-decoration="none" x="200" y="60">UNREGISTERED</text><text fill="#eeeeee" stroke="none" font-family="Arial" font-size="24px" font-style="normal" font-weight="normal" text-decoration="none" x="200" y="90">UNREGISTERED</text><text fill="#eeeeee" stroke="none" font-family="Arial" font-size="24px" font-style="normal" font-weight="normal" text-decoration="none" x="200" y="120">UNREGISTERED</text><text fill="#eeeeee" stroke="none" font-family="Arial" font-size="24px" font-style="normal" font-weight="normal" text-decoration="none" x="200" y="150">UNREGISTERED</text><text fill="#eeeeee" stroke="none" font-family="Arial" font-size="24px" font-style="normal" font-weight="normal" text-decoration="none" x="200" y="180">UNREGISTERED</text><text fill="#eeeeee" stroke="none" font-family="Arial" font-size="24px" font-style="normal" font-weight="normal" text-decoration="none" x="200" y="210">UNREGISTERED</text><text fill="#eeeeee" stroke="none" font-family="Arial" font-size="24px" font-style="normal" font-weight="normal" text-decoration="none" x="200" y="240">UNREGISTERED</text><text fill="#eeeeee" stroke="none" font-family="Arial" font-size="24px" font-style="normal" font-weight="normal" text-decoration="none" x="200" y="270">UNREGISTERED</text><text fill="#eeeeee" stroke="none" font-family="Arial" font-size="24px" font-style="normal" font-weight="normal" text-decoration="none" x="200" y="300">UNREGISTERED</text><text fill="#eeeeee" stroke="none" font-family="Arial" font-size="24px" font-style="normal" font-weight="normal" text-decoration="none" x="200" y="330">UNREGISTERED</text><text fill="#eeeeee" stroke="none" font-family="Arial" font-size="24px" font-style="normal" font-weight="normal" text-decoration="none" x="200" y="360">UNREGISTERED</text><text fill="#eeeeee" stroke="none" font-family="Arial" font-size="24px" font-style="normal" font-weight="normal" text-decoration="none" x="200" y="390">UNREGISTERED</text><text fill="#eeeeee" stroke="none" font-family="Arial" font-size="24px" font-style="normal" font-weight="normal" text-decoration="none" x="200" y="420">UNREGISTERED</text><text fill="#eeeeee" stroke="none" font-family="Arial" font-size="24px" font-style="normal" font-weight="normal" text-decoration="none" x="200" y="450">UNREGISTERED</text><text fill="#eeeeee" stroke="none" font-family="Arial" font-size="24px" font-style="normal" font-weight="normal" text-decoration="none" x="200" y="480">UNREGISTERED</text><text fill="#eeeeee" stroke="none" font-family="Arial" font-size="24px" font-style="normal" font-weight="normal" text-decoration="none" x="200" y="510">UNREGISTERED</text><text fill="#eeeeee" stroke="none" font-family="Arial" font-size="24px" font-style="normal" font-weight="normal" text-decoration="none" x="200" y="540">UNREGISTERED</text><text fill="#eeeeee" stroke="none" font-family="Arial" font-size="24px" font-style="normal" font-weight="normal" text-decoration="none" x="400" y="0">UNREGISTERED</text><text fill="#eeeeee" stroke="none" font-family="Arial" font-size="24px" font-style="normal" font-weight="normal" text-decoration="none" x="400" y="30">UNREGISTERED</text><text fill="#eeeeee" stroke="none" font-family="Arial" font-size="24px" font-style="normal" font-weight="normal" text-decoration="none" x="400" y="60">UNREGISTERED</text><text fill="#eeeeee" stroke="none" font-family="Arial" font-size="24px" font-style="normal" font-weight="normal" text-decoration="none" x="400" y="90">UNREGISTERED</text><text fill="#eeeeee" stroke="none" font-family="Arial" font-size="24px" font-style="normal" font-weight="normal" text-decoration="none" x="400" y="120">UNREGISTERED</text><text fill="#eeeeee" stroke="none" font-family="Arial" font-size="24px" font-style="normal" font-weight="normal" text-decoration="none" x="400" y="150">UNREGISTERED</text><text fill="#eeeeee" stroke="none" font-family="Arial" font-size="24px" font-style="normal" font-weight="normal" text-decoration="none" x="400" y="180">UNREGISTERED</text><text fill="#eeeeee" stroke="none" font-family="Arial" font-size="24px" font-style="normal" font-weight="normal" text-decoration="none" x="400" y="210">UNREGISTERED</text><text fill="#eeeeee" stroke="none" font-family="Arial" font-size="24px" font-style="normal" font-weight="normal" text-decoration="none" x="400" y="240">UNREGISTERED</text><text fill="#eeeeee" stroke="none" font-family="Arial" font-size="24px" font-style="normal" font-weight="normal" text-decoration="none" x="400" y="270">UNREGISTERED</text><text fill="#eeeeee" stroke="none" font-family="Arial" font-size="24px" font-style="normal" font-weight="normal" text-decoration="none" x="400" y="300">UNREGISTERED</text><text fill="#eeeeee" stroke="none" font-family="Arial" font-size="24px" font-style="normal" font-weight="normal" text-decoration="none" x="400" y="330">UNREGISTERED</text><text fill="#eeeeee" stroke="none" font-family="Arial" font-size="24px" font-style="normal" font-weight="normal" text-decoration="none" x="400" y="360">UNREGISTERED</text><text fill="#eeeeee" stroke="none" font-family="Arial" font-size="24px" font-style="normal" font-weight="normal" text-decoration="none" x="400" y="390">UNREGISTERED</text><text fill="#eeeeee" stroke="none" font-family="Arial" font-size="24px" font-style="normal" font-weight="normal" text-decoration="none" x="400" y="420">UNREGISTERED</text><text fill="#eeeeee" stroke="none" font-family="Arial" font-size="24px" font-style="normal" font-weight="normal" text-decoration="none" x="400" y="450">UNREGISTERED</text><text fill="#eeeeee" stroke="none" font-family="Arial" font-size="24px" font-style="normal" font-weight="normal" text-decoration="none" x="400" y="480">UNREGISTERED</text><text fill="#eeeeee" stroke="none" font-family="Arial" font-size="24px" font-style="normal" font-weight="normal" text-decoration="none" x="400" y="510">UNREGISTERED</text><text fill="#eeeeee" stroke="none" font-family="Arial" font-size="24px" font-style="normal" font-weight="normal" text-decoration="none" x="400" y="540">UNREGISTERED</text><text fill="#eeeeee" stroke="none" font-family="Arial" font-size="24px" font-style="normal" font-weight="normal" text-decoration="none" x="600" y="0">UNREGISTERED</text><text fill="#eeeeee" stroke="none" font-family="Arial" font-size="24px" font-style="normal" font-weight="normal" text-decoration="none" x="600" y="30">UNREGISTERED</text><text fill="#eeeeee" stroke="none" font-family="Arial" font-size="24px" font-style="normal" font-weight="normal" text-decoration="none" x="600" y="60">UNREGISTERED</text><text fill="#eeeeee" stroke="none" font-family="Arial" font-size="24px" font-style="normal" font-weight="normal" text-decoration="none" x="600" y="90">UNREGISTERED</text><text fill="#eeeeee" stroke="none" font-family="Arial" font-size="24px" font-style="normal" font-weight="normal" text-decoration="none" x="600" y="120">UNREGISTERED</text><text fill="#eeeeee" stroke="none" font-family="Arial" font-size="24px" font-style="normal" font-weight="normal" text-decoration="none" x="600" y="150">UNREGISTERED</text><text fill="#eeeeee" stroke="none" font-family="Arial" font-size="24px" font-style="normal" font-weight="normal" text-decoration="none" x="600" y="180">UNREGISTERED</text><text fill="#eeeeee" stroke="none" font-family="Arial" font-size="24px" font-style="normal" font-weight="normal" text-decoration="none" x="600" y="210">UNREGISTERED</text><text fill="#eeeeee" stroke="none" font-family="Arial" font-size="24px" font-style="normal" font-weight="normal" text-decoration="none" x="600" y="240">UNREGISTERED</text><text fill="#eeeeee" stroke="none" font-family="Arial" font-size="24px" font-style="normal" font-weight="normal" text-decoration="none" x="600" y="270">UNREGISTERED</text><text fill="#eeeeee" stroke="none" font-family="Arial" font-size="24px" font-style="normal" font-weight="normal" text-decoration="none" x="600" y="300">UNREGISTERED</text><text fill="#eeeeee" stroke="none" font-family="Arial" font-size="24px" font-style="normal" font-weight="normal" text-decoration="none" x="600" y="330">UNREGISTERED</text><text fill="#eeeeee" stroke="none" font-family="Arial" font-size="24px" font-style="normal" font-weight="normal" text-decoration="none" x="600" y="360">UNREGISTERED</text><text fill="#eeeeee" stroke="none" font-family="Arial" font-size="24px" font-style="normal" font-weight="normal" text-decoration="none" x="600" y="390">UNREGISTERED</text><text fill="#eeeeee" stroke="none" font-family="Arial" font-size="24px" font-style="normal" font-weight="normal" text-decoration="none" x="600" y="420">UNREGISTERED</text><text fill="#eeeeee" stroke="none" font-family="Arial" font-size="24px" font-style="normal" font-weight="normal" text-decoration="none" x="600" y="450">UNREGISTERED</text><text fill="#eeeeee" stroke="none" font-family="Arial" font-size="24px" font-style="normal" font-weight="normal" text-decoration="none" x="600" y="480">UNREGISTERED</text><text fill="#eeeeee" stroke="none" font-family="Arial" font-size="24px" font-style="normal" font-weight="normal" text-decoration="none" x="600" y="510">UNREGISTERED</text><text fill="#eeeeee" stroke="none" font-family="Arial" font-size="24px" font-style="normal" font-weight="normal" text-decoration="none" x="600" y="540">UNREGISTERED</text><g transform="translate(-78,-22) scale(1,1)"><path fill="#C0C0C0" stroke="none" d="M 383 56 C 383 46.6111584 405.6096176 39 433.5 39 C 461.3903824 39 484 46.6111584 484 56 C 484 65.3888416 461.3903824 73 433.5 73 C 405.6096176 73 383 65.3888416 383 56 Z" opacity="0.2"/></g><g transform="translate(-78,-22) scale(1,1)"><path fill="#ffffff" stroke="none" d="M 376 49 C 376 39.6111584 398.6096176 32 426.5 32 C 454.3903824 32 477 39.6111584 477 49 C 477 58.3888416 454.3903824 66 426.5 66 C 398.6096176 66 376 58.3888416 376 49 Z"/></g><g transform="translate(-78,-22) scale(1,1)"><path fill="none" stroke="#000000" d="M 376 49 C 376 39.6111584 398.6096176 32 426.5 32 C 454.3903824 32 477 39.6111584 477 49 C 477 58.3888416 454.3903824 66 426.5 66 C 398.6096176 66 376 58.3888416 376 49 Z" stroke-miterlimit="10"/></g><g transform="translate(-78,-22) scale(1,1)"><g><path fill="none" stroke="none"/><text fill="#000000" stroke="none" font-family="Arial" font-size="13px" font-style="normal" font-weight="bold" text-decoration="none" x="410.976806640625" y="54.5">login</text></g></g><g transform="translate(-78,-22) scale(1,1)"><path fill="#C0C0C0" stroke="none" d="M 351 112 C 351 102.6111584 390.17508 95 438.5 95 C 486.82492 95 526 102.6111584 526 112 C 526 121.3888416 486.82492 129 438.5 129 C 390.17508 129 351 121.3888416 351 112 Z" opacity="0.2"/></g><g transform="translate(-78,-22) scale(1,1)"><path fill="#ffffff" stroke="none" d="M 344 105 C 344 95.6111584 383.17508 88 431.5 88 C 479.82492 88 519 95.6111584 519 105 C 519 114.3888416 479.82492 122 431.5 122 C 383.17508 122 344 114.3888416 344 105 Z"/></g><g transform="translate(-78,-22) scale(1,1)"><path fill="none" stroke="#000000" d="M 344 105 C 344 95.6111584 383.17508 88 431.5 88 C 479.82492 88 519 95.6111584 519 105 C 519 114.3888416 479.82492 122 431.5 122 C 383.17508 122 344 114.3888416 344 105 Z" stroke-miterlimit="10"/></g><g transform="translate(-78,-22) scale(1,1)"><g><path fill="none" stroke="none"/><text fill="#000000" stroke="none" font-family="Arial" font-size="13px" font-style="normal" font-weight="bold" text-decoration="none" x="393.947265625" y="110.5">add product</text></g></g><g transform="translate(-78,-22) scale(1,1)"><path fill="#C0C0C0" stroke="none" d="M 351 168 C 351 158.6111584 388.3842192 151 434.5 151 C 480.6157808 151 518 158.6111584 518 168 C 518 177.3888416 480.6157808 185 434.5 185 C 388.3842192 185 351 177.3888416 351 168 Z" opacity="0.2"/></g><g transform="translate(-78,-22) scale(1,1)"><path fill="#ffffff" stroke="none" d="M 344 161 C 344 151.6111584 381.3842192 144 427.5 144 C 473.6157808 144 511 151.6111584 511 161 C 511 170.3888416 473.6157808 178 427.5 178 C 381.3842192 178 344 170.3888416 344 161 Z"/></g><g transform="translate(-78,-22) scale(1,1)"><path fill="none" stroke="#000000" d="M 344 161 C 344 151.6111584 381.3842192 144 427.5 144 C 473.6157808 144 511 151.6111584 511 161 C 511 170.3888416 473.6157808 178 427.5 178 C 381.3842192 178 344 170.3888416 344 161 Z" stroke-miterlimit="10"/></g><g transform="translate(-78,-22) scale(1,1)"><g><path fill="none" stroke="none"/><text fill="#000000" stroke="none" font-family="Arial" font-size="13px" font-style="normal" font-weight="bold" text-decoration="none" x="380.197265625" y="166.5">update product</text></g></g><g transform="translate(-78,-22) scale(1,1)"><path fill="#C0C0C0" stroke="none" d="M 351 208 C 351 198.6111584 387.936504 191 433.5 191 C 479.063496 191 516 198.6111584 516 208 C 516 217.3888416 479.063496 225 433.5 225 C 387.936504 225 351 217.3888416 351 208 Z" opacity="0.2"/></g><g transform="translate(-78,-22) scale(1,1)"><path fill="#ffffff" stroke="none" d="M 344 201 C 344 191.6111584 380.936504 184 426.5 184 C 472.063496 184 509 191.6111584 509 201 C 509 210.3888416 472.063496 218 426.5 218 C 380.936504 218 344 210.3888416 344 201 Z"/></g><g transform="translate(-78,-22) scale(1,1)"><path fill="none" stroke="#000000" d="M 344 201 C 344 191.6111584 380.936504 184 426.5 184 C 472.063496 184 509 191.6111584 509 201 C 509 210.3888416 472.063496 218 426.5 218 C 380.936504 218 344 210.3888416 344 201 Z" stroke-miterlimit="10"/></g><g transform="translate(-78,-22) scale(1,1)"><g><path fill="none" stroke="none"/><text fill="#000000" stroke="none" font-family="Arial" font-size="13px" font-style="normal" font-weight="bold" text-decoration="none" x="401.226806640625" y="206.5">add unit</text></g></g><g transform="translate(-78,-22) scale(1,1)"><path fill="#C0C0C0" stroke="none" d="M 351 298.5 C 351 287.7304464 390.17508 279 438.5 279 C 486.82492 279 526 287.7304464 526 298.5 C 526 309.2695536 486.82492 318 438.5 318 C 390.17508 318 351 309.2695536 351 298.5 Z" opacity="0.2"/></g><g transform="translate(-78,-22) scale(1,1)"><path fill="#ffffff" stroke="none" d="M 344 291.5 C 344 280.7304464 383.17508 272 431.5 272 C 479.82492 272 519 280.7304464 519 291.5 C 519 302.2695536 479.82492 311 431.5 311 C 383.17508 311 344 302.2695536 344 291.5 Z"/></g><g transform="translate(-78,-22) scale(1,1)"><path fill="none" stroke="#000000" d="M 344 291.5 C 344 280.7304464 383.17508 272 431.5 272 C 479.82492 272 519 280.7304464 519 291.5 C 519 302.2695536 479.82492 311 431.5 311 C 383.17508 311 344 302.2695536 344 291.5 Z" stroke-miterlimit="10"/></g><g transform="translate(-78,-22) scale(1,1)"><g><path fill="none" stroke="none"/><text fill="#000000" stroke="none" font-family="Arial" font-size="13px" font-style="normal" font-weight="bold" text-decoration="none" x="394.661376953125" y="297">sell product</text></g></g><g transform="translate(-78,-22) scale(1,1)"><path fill="#C0C0C0" stroke="none" d="M 359 358.5 C 359 345.5213072 396.3842192 335 442.5 335 C 488.6157808 335 526 345.5213072 526 358.5 C 526 371.4786928 488.6157808 382 442.5 382 C 396.3842192 382 359 371.4786928 359 358.5 Z" opacity="0.2"/></g><g transform="translate(-78,-22) scale(1,1)"><path fill="#ffffff" stroke="none" d="M 352 351.5 C 352 338.5213072 389.3842192 328 435.5 328 C 481.6157808 328 519 338.5213072 519 351.5 C 519 364.4786928 481.6157808 375 435.5 375 C 389.3842192 375 352 364.4786928 352 351.5 Z"/></g><g transform="translate(-78,-22) scale(1,1)"><path fill="none" stroke="#000000" d="M 352 351.5 C 352 338.5213072 389.3842192 328 435.5 328 C 481.6157808 328 519 338.5213072 519 351.5 C 519 364.4786928 481.6157808 375 435.5 375 C 389.3842192 375 352 364.4786928 352 351.5 Z" stroke-miterlimit="10"/></g><g transform="translate(-78,-22) scale(1,1)"><g><path fill="none" stroke="none"/><text fill="#000000" stroke="none" font-family="Arial" font-size="13px" font-style="normal" font-weight="bold" text-decoration="none" x="402.622314453125" y="357">view stock</text></g></g><g transform="translate(-78,-22) scale(1,1)"><path fill="#ffffff" stroke="none" d="M 98.11039062500001 167.22407508263223 C 98.11039062500001 154.9500562204357 107.72936369159376 145 119.594970703125 145 C 131.46057771465624 145 141.07955078125 154.9500562204357 141.07955078125 167.22407508263223 C 141.07955078125 179.49809394482875 131.46057771465624 189.44815016526442 119.594970703125 189.44815016526442 C 107.72936369159376 189.44815016526442 98.11039062500001 179.49809394482875 98.11039062500001 167.22407508263223 Z"/></g><g transform="translate(-78,-22) scale(1,1)"><path fill="none" stroke="#000000" d="M 98.11039062500001 167.22407508263223 C 98.11039062500001 154.9500562204357 107.72936369159376 145 119.594970703125 145 C 131.46057771465624 145 141.07955078125 154.9500562204357 141.07955078125 167.22407508263223 C 141.07955078125 179.49809394482875 131.46057771465624 189.44815016526442 119.594970703125 189.44815016526442 C 107.72936369159376 189.44815016526442 98.11039062500001 179.49809394482875 98.11039062500001 167.22407508263223 Z" stroke-miterlimit="10"/></g><g transform="translate(-78,-22) scale(1,1)"><path fill="none" stroke="#000000" d="M 119.594970703125 189.44815016526442 L 119.594970703125 232.22287973257212" stroke-miterlimit="10"/></g><g transform="translate(-78,-22) scale(1,1)"><path fill="none" stroke="#000000" d="M 96.846591796875 205.4886737530048 L 142.343349609375 205.4886737530048" stroke-miterlimit="10"/></g><g transform="translate(-78,-22) scale(1,1)"><path fill="none" stroke="#000000" d="M 119.594970703125 232.22287973257212 L 88 276.67102989783655" stroke-miterlimit="10"/></g><g transform="translate(-78,-22) scale(1,1)"><path fill="none" stroke="#000000" d="M 119.594970703125 232.22287973257212 L 151.18994140625 276.67102989783655" stroke-miterlimit="10"/></g><g transform="translate(-78,-22) scale(1,1)"><g><path fill="none" stroke="none"/><text fill="#000000" stroke="none" font-family="Arial" font-size="13px" font-style="normal" font-weight="bold" text-decoration="none" x="98.292236328125" y="295.67102989783655">ADMIN</text></g></g><g transform="translate(-78,-22) scale(1,1)"><path fill="#ffffff" stroke="none" d="M 803.5634030539773 161.68 C 803.5634030539773 156.886167936 807.4492453789227 153 812.24267578125 153 C 817.0361061835773 153 820.9219485085227 156.886167936 820.9219485085227 161.68 C 820.9219485085227 166.47383206400002 817.0361061835773 170.36 812.24267578125 170.36 C 807.4492453789227 170.36 803.5634030539773 166.47383206400002 803.5634030539773 161.68 Z"/></g><g transform="translate(-78,-22) scale(1,1)"><path fill="none" stroke="#000000" d="M 803.5634030539773 161.68 C 803.5634030539773 156.886167936 807.4492453789227 153 812.24267578125 153 C 817.0361061835773 153 820.9219485085227 156.886167936 820.9219485085227 161.68 C 820.9219485085227 166.47383206400002 817.0361061835773 170.36 812.24267578125 170.36 C 807.4492453789227 170.36 803.5634030539773 166.47383206400002 803.5634030539773 161.68 Z" stroke-miterlimit="10"/></g><g transform="translate(-78,-22) scale(1,1)"><path fill="none" stroke="#000000" d="M 812.24267578125 170.36 L 812.24267578125 187.64" stroke-miterlimit="10"/></g><g transform="translate(-78,-22) scale(1,1)"><path fill="none" stroke="#000000" d="M 803.0528575994318 176.84 L 821.4324939630682 176.84" stroke-miterlimit="10"/></g><g transform="translate(-78,-22) scale(1,1)"><path fill="none" stroke="#000000" d="M 812.24267578125 187.64 L 799.4790394176136 205" stroke-miterlimit="10"/></g><g transform="translate(-78,-22) scale(1,1)"><path fill="none" stroke="#000000" d="M 812.24267578125 187.64 L 825.0063121448864 205" stroke-miterlimit="10"/></g><g transform="translate(-78,-22) scale(1,1)"><g><path fill="none" stroke="none"/><text fill="#000000" stroke="none" font-family="Arial" font-size="13px" font-style="normal" font-weight="bold" text-decoration="none" x="772.5" y="224">sales person</text></g></g><g transform="translate(-78,-22) scale(1,1)"><path fill="none" stroke="#000000" d="M 152 208 L 395 67" stroke-miterlimit="10"/></g><g transform="translate(-78,-22) scale(1,1)"><path fill="none" stroke="#000000" d="M 388.3225752645491 75.74139570677295 L 395 67 L 384.09724750740577 68.459447869994" stroke-miterlimit="10"/></g><g transform="translate(-78,-22) scale(1,1)"><path fill="none" stroke="#000000" d="M 152 214 L 385 123" stroke-miterlimit="10"/></g><g transform="translate(-78,-22) scale(1,1)"><path fill="none" stroke="#000000" d="M 377.06509379985914 130.61821918790517 L 385 123 L 374.002279569468 122.77606846613445" stroke-miterlimit="10"/></g><g transform="translate(-78,-22) scale(1,1)"><path fill="none" stroke="#000000" d="M 152 220 L 343 179" stroke-miterlimit="10"/></g><g transform="translate(-78,-22) scale(1,1)"><path fill="none" stroke="#000000" d="M 333.94716189993414 185.24868964935814 L 343 179 L 332.18018596586813 177.0171676150508" stroke-miterlimit="10"/></g><g transform="translate(-78,-22) scale(1,1)"><path fill="none" stroke="#000000" d="M 152 224 L 343 208" stroke-miterlimit="10"/></g><g transform="translate(-78,-22) scale(1,1)"><path fill="none" stroke="#000000" d="M 333.22419506792744 213.04317736452586 L 343 208 L 332.5213971277919 204.65352695415734" stroke-miterlimit="10"/></g><g transform="translate(-78,-22) scale(1,1)"><path fill="none" stroke="#000000" d="M 767 174 L 475 67" stroke-miterlimit="10"/></g><g transform="translate(-78,-22) scale(1,1)"><path fill="none" stroke="#000000" d="M 485.9905492565588 66.54411949026672 L 475 67 L 483.09384810812065 74.44913570843433" stroke-miterlimit="10"/></g><g transform="translate(-78,-22) scale(1,1)"><path fill="#C0C0C0" stroke="none" d="M 359 256 C 359 246.6111584 395.936504 239 441.5 239 C 487.063496 239 524 246.6111584 524 256 C 524 265.3888416 487.063496 273 441.5 273 C 395.936504 273 359 265.3888416 359 256 Z" opacity="0.2"/></g><g transform="translate(-78,-22) scale(1,1)"><path fill="#ffffff" stroke="none" d="M 352 249 C 352 239.6111584 388.936504 232 434.5 232 C 480.063496 232 517 239.6111584 517 249 C 517 258.3888416 480.063496 266 434.5 266 C 388.936504 266 352 258.3888416 352 249 Z"/></g><g transform="translate(-78,-22) scale(1,1)"><path fill="none" stroke="#000000" d="M 352 249 C 352 239.6111584 388.936504 232 434.5 232 C 480.063496 232 517 239.6111584 517 249 C 517 258.3888416 480.063496 266 434.5 266 C 388.936504 266 352 258.3888416 352 249 Z" stroke-miterlimit="10"/></g><g transform="translate(-78,-22) scale(1,1)"><g><path fill="none" stroke="none"/><text fill="#000000" stroke="none" font-family="Arial" font-size="13px" font-style="normal" font-weight="bold" text-decoration="none" x="409.226806640625" y="254.5">add unit</text></g></g><g transform="translate(-78,-22) scale(1,1)"><path fill="none" stroke="#000000" d="M 152 229 L 351 243" stroke-miterlimit="10"/></g><g transform="translate(-78,-22) scale(1,1)"><path fill="none" stroke="#000000" d="M 340.5669647726831 246.48593975070781 L 351 243 L 341.1577984058729 238.08766167893933" stroke-miterlimit="10"/></g><g transform="translate(-78,-22) scale(1,1)"><path fill="none" stroke="#000000" d="M 152 234 L 343 273" stroke-miterlimit="10"/></g><g transform="translate(-78,-22) scale(1,1)"><path fill="#FFFFFF" stroke="none" d="M 321.40124027556624 277.1825325301995 L 343 273 L 324.76987341899655 260.6848676482714"/></g><g transform="translate(-78,-22) scale(1,1)"><path fill="none" stroke="#000000" d="M 321.40124027556624 277.1825325301995 L 343 273 L 324.76987341899655 260.6848676482714 L 321.40124027556624 277.1825325301995" stroke-miterlimit="10"/></g><g transform="translate(-78,-22) scale(1,1)"><path fill="none" stroke="#000000" d="M 767 203 L 507 271" stroke-miterlimit="10"/></g><g transform="translate(-78,-22) scale(1,1)"><path fill="#FFFFFF" stroke="none" d="M 524.5336934055879 257.71205073915297 L 507 271 L 528.7941925367447 274.0021944759293"/></g><g transform="translate(-78,-22) scale(1,1)"><path fill="none" stroke="#000000" d="M 524.5336934055879 257.71205073915297 L 507 271 L 528.7941925367447 274.0021944759293 L 524.5336934055879 257.71205073915297" stroke-miterlimit="10"/></g><g transform="translate(-78,-22) scale(1,1)"><path fill="none" stroke="#000000" d="M 152 240 L 374 327" stroke-miterlimit="10"/></g><g transform="translate(-78,-22) scale(1,1)"><path fill="#FFFFFF" stroke="none" d="M 352.00405573301583 327.42241662340234 L 374 327 L 358.1478249913204 311.74521230910784"/></g><g transform="translate(-78,-22) scale(1,1)"><path fill="none" stroke="#000000" d="M 352.00405573301583 327.42241662340234 L 374 327 L 358.1478249913204 311.74521230910784 L 352.00405573301583 327.42241662340234" stroke-miterlimit="10"/></g><g transform="translate(-78,-22) scale(1,1)"><path fill="none" stroke="#000000" d="M 767 210 L 492 327" stroke-miterlimit="10"/></g><g transform="translate(-78,-22) scale(1,1)"><path fill="#FFFFFF" stroke="none" d="M 507.40697674117223 311.2956990700962 L 492 327 L 513.9989954125955 326.7897600499372"/></g><g transform="translate(-78,-22) scale(1,1)"><path fill="none" stroke="#000000" d="M 507.40697674117223 311.2956990700962 L 492 327 L 513.9989954125955 326.7897600499372 L 507.40697674117223 311.2956990700962" stroke-miterlimit="10"/></g><g transform="translate(-78,-22) scale(1,1)"><path fill="#C0C0C0" stroke="none" d="M 343 408 C 343 398.6111584 379.0410736 391 423.5 391 C 467.9589264 391 504 398.6111584 504 408 C 504 417.3888416 467.9589264 425 423.5 425 C 379.0410736 425 343 417.3888416 343 408 Z" opacity="0.2"/></g><g transform="translate(-78,-22) scale(1,1)"><path fill="#ffffff" stroke="none" d="M 336 401 C 336 391.6111584 372.0410736 384 416.5 384 C 460.9589264 384 497 391.6111584 497 401 C 497 410.3888416 460.9589264 418 416.5 418 C 372.0410736 418 336 410.3888416 336 401 Z"/></g><g transform="translate(-78,-22) scale(1,1)"><path fill="none" stroke="#000000" d="M 336 401 C 336 391.6111584 372.0410736 384 416.5 384 C 460.9589264 384 497 391.6111584 497 401 C 497 410.3888416 460.9589264 418 416.5 418 C 372.0410736 418 336 410.3888416 336 401 Z" stroke-miterlimit="10"/></g><g transform="translate(-78,-22) scale(1,1)"><g><path fill="none" stroke="none"/><text fill="#000000" stroke="none" font-family="Arial" font-size="13px" font-style="normal" font-weight="bold" text-decoration="none" x="364.128662109375" y="406.5">update customer</text></g></g><g transform="translate(-78,-22) scale(1,1)"><path fill="#C0C0C0" stroke="none" d="M 367 448 C 367 438.6111584 397.4446336 431 435 431 C 472.5553664 431 503 438.6111584 503 448 C 503 457.3888416 472.5553664 465 435 465 C 397.4446336 465 367 457.3888416 367 448 Z" opacity="0.2"/></g><g transform="translate(-78,-22) scale(1,1)"><path fill="#ffffff" stroke="none" d="M 360 441 C 360 431.6111584 390.4446336 424 428 424 C 465.5553664 424 496 431.6111584 496 441 C 496 450.3888416 465.5553664 458 428 458 C 390.4446336 458 360 450.3888416 360 441 Z"/></g><g transform="translate(-78,-22) scale(1,1)"><path fill="none" stroke="#000000" d="M 360 441 C 360 431.6111584 390.4446336 424 428 424 C 465.5553664 424 496 431.6111584 496 441 C 496 450.3888416 465.5553664 458 428 458 C 390.4446336 458 360 450.3888416 360 441 Z" stroke-miterlimit="10"/></g><g transform="translate(-78,-22) scale(1,1)"><g><path fill="none" stroke="none"/><text fill="#000000" stroke="none" font-family="Arial" font-size="13px" font-style="normal" font-weight="bold" text-decoration="none" x="384.299560546875" y="446.5">Add customer</text></g></g><g transform="translate(-78,-22) scale(1,1)"><path fill="#C0C0C0" stroke="none" d="M 343 496 C 343 486.6111584 382.8466528 479 432 479 C 481.1533472 479 521 486.6111584 521 496 C 521 505.3888416 481.1533472 513 432 513 C 382.8466528 513 343 505.3888416 343 496 Z" opacity="0.2"/></g><g transform="translate(-78,-22) scale(1,1)"><path fill="#ffffff" stroke="none" d="M 336 489 C 336 479.6111584 375.8466528 472 425 472 C 474.1533472 472 514 479.6111584 514 489 C 514 498.3888416 474.1533472 506 425 506 C 375.8466528 506 336 498.3888416 336 489 Z"/></g><g transform="translate(-78,-22) scale(1,1)"><path fill="none" stroke="#000000" d="M 336 489 C 336 479.6111584 375.8466528 472 425 472 C 474.1533472 472 514 479.6111584 514 489 C 514 498.3888416 474.1533472 506 425 506 C 375.8466528 506 336 498.3888416 336 489 Z" stroke-miterlimit="10"/></g><g transform="translate(-78,-22) scale(1,1)"><g><path fill="none" stroke="none"/><text fill="#000000" stroke="none" font-family="Arial" font-size="13px" font-style="normal" font-weight="bold" text-decoration="none" x="366.4873046875" y="494.5">purchase products</text></g></g><g transform="translate(-78,-22) scale(1,1)"><path fill="none" stroke="#000000" d="M 152 246 L 385 383" stroke-miterlimit="10"/></g><g transform="translate(-78,-22) scale(1,1)"><path fill="none" stroke="#000000" d="M 374.10584684758567 381.4776902116386 L 385 383 L 378.37310600506004 374.22023485622606" stroke-miterlimit="10"/></g><g transform="translate(-78,-22) scale(1,1)"><path fill="none" stroke="#000000" d="M 152 250 L 402 423" stroke-miterlimit="10"/></g><g transform="translate(-78,-22) scale(1,1)"><path fill="none" stroke="#000000" d="M 391.2477454141419 420.67857342978647 L 402 423 L 396.0385043391202 413.75551139947095" stroke-miterlimit="10"/></g><g transform="translate(-78,-22) scale(1,1)"><path fill="none" stroke="#000000" d="M 152 259 L 208 312 L 288 432 L 382 471" stroke-miterlimit="10"/></g><g transform="translate(-78,-22) scale(1,1)"><path fill="none" stroke="#000000" d="M 371.00000185226355 470.9936164434514 L 382 471 L 374.22634057281965 463.21731286057246" stroke-miterlimit="10"/></g><g transform="translate(-78,-22) scale(1,1)"><path fill="#C0C0C0" stroke="none" d="M 335 552 C 335 542.6111584 367.45935199999997 535 407.5 535 C 447.54064800000003 535 480 542.6111584 480 552 C 480 561.3888416 447.54064800000003 569 407.5 569 C 367.45935199999997 569 335 561.3888416 335 552 Z" opacity="0.2"/></g><g transform="translate(-78,-22) scale(1,1)"><path fill="#ffffff" stroke="none" d="M 328 545 C 328 535.6111584 360.45935199999997 528 400.5 528 C 440.54064800000003 528 473 535.6111584 473 545 C 473 554.3888416 440.54064800000003 562 400.5 562 C 360.45935199999997 562 328 554.3888416 328 545 Z"/></g><g transform="translate(-78,-22) scale(1,1)"><path fill="none" stroke="#000000" d="M 328 545 C 328 535.6111584 360.45935199999997 528 400.5 528 C 440.54064800000003 528 473 535.6111584 473 545 C 473 554.3888416 440.54064800000003 562 400.5 562 C 360.45935199999997 562 328 554.3888416 328 545 Z" stroke-miterlimit="10"/></g><g transform="translate(-78,-22) scale(1,1)"><g><path fill="none" stroke="none"/><text fill="#000000" stroke="none" font-family="Arial" font-size="13px" font-style="normal" font-weight="bold" text-decoration="none" x="353.543212890625" y="550.5">Add categories</text></g></g><g transform="translate(-78,-22) scale(1,1)"><path fill="none" stroke="#000000" d="M 152 273 L 280 448 L 378 527" stroke-miterlimit="10"/></g><g transform="translate(-78,-22) scale(1,1)"><path fill="none" stroke="#000000" d="M 367.446087524412 523.8992047056234 L 378 527 L 372.7298503001875 517.3446635407374" stroke-miterlimit="10"/></g></g></svg>